<?xml version="1.0" encoding="utf-8"?>
<!-- Generator: Adobe Illustrator 22.0.1, SVG Export Plug-In . SVG Version: 6.00 Build 0)  -->
<svg version="1.1" id="Layer_1" xmlns="http://www.w3.org/2000/svg" xmlns:xlink="http://www.w3.org/1999/xlink" x="0px" y="0px"
	 viewBox="0 0 100 41.5" style="enable-background:new 0 0 100 41.5;" xml:space="preserve">
<style type="text/css">
	.st0{fill:#1D1D1B;}
</style>
<g>
	<path class="st0" d="M6.7,3.9H9v3.4l2.9-3.4h2.8l-3.2,3.6l3.3,4.8H12L9.9,9.2L9,10.2v2.2H6.7V3.9z"/>
	<path class="st0" d="M18.1,3.9h2.2l3.6,8.5h-2.5l-0.6-1.5h-3.2L17,12.3h-2.4L18.1,3.9z M20.2,9l-0.9-2.4L18.3,9H20.2z"/>
	<path class="st0" d="M24.8,3.9h3.6c2.1,0,3.5,1.1,3.5,3v0c0,2-1.5,3-3.6,3h-1.2v2.4h-2.3V3.9z M28.2,8.1c0.8,0,1.3-0.4,1.3-1.1v0
		c0-0.7-0.5-1.1-1.3-1.1h-1.1v2.2H28.2z"/>
	<path class="st0" d="M34.8,3.9H37l3.6,8.5h-2.5l-0.6-1.5h-3.2l-0.6,1.5h-2.4L34.8,3.9z M36.8,9l-0.9-2.4L34.9,9H36.8z"/>
	<path class="st0" d="M41.4,3.9h2.5l2,3.3l2-3.3h2.5v8.4H48V7.5l-2.1,3.3h0l-2.1-3.3v4.8h-2.3V3.9z"/>
	<path class="st0" d="M51.9,3.9h2.3v8.4h-2.3V3.9z"/>
	<path class="st0" d="M58.1,8.1l-2.8-4.1H58l1.5,2.4L61,3.9h2.6L60.8,8l2.9,4.3H61l-1.6-2.5l-1.6,2.5h-2.6L58.1,8.1z"/>
	<path class="st0" d="M67.4,3.9h2.2l3.6,8.5h-2.5l-0.6-1.5h-3.2l-0.6,1.5h-2.4L67.4,3.9z M69.4,9l-0.9-2.4L67.5,9H69.4z"/>
	<path class="st0" d="M74,3.9h2.3v3.1h3V3.9h2.3v8.4h-2.3V9.1h-3v3.2H74V3.9z"/>
	<path class="st0" d="M85,12.3h-2.4l3.4-8.5h2.2l3.4,8.5H89l-2-5.6L85,12.3z"/>
</g>
<g>
	<path class="st0" d="M6.8,22.1h0.7v3.6l3.5-3.6h0.9l-2.6,2.6l2.7,3.4h-0.9l-2.3-2.9l-1.3,1.3v1.6H6.8V22.1z"/>
	<path class="st0" d="M15.2,22.1h0.6l2.7,6.1h-0.7l-0.7-1.6h-3.3l-0.7,1.6h-0.7L15.2,22.1z M16.8,25.9l-1.4-3.1l-1.4,3.1H16.8z"/>
	<path class="st0" d="M20.5,22.7h-2v-0.6h4.7v0.6h-2v5.4h-0.7V22.7z"/>
	<path class="st0" d="M26,22.1h0.6l2.7,6.1h-0.7l-0.7-1.6h-3.3l-0.7,1.6h-0.7L26,22.1z M27.7,25.9l-1.4-3.1l-1.4,3.1H27.7z"/>
	<path class="st0" d="M30.4,22.1H35v0.6h-3.6l2,2.3l-2.2,2.5h3.9v0.6h-4.8v-0.5l2.3-2.6l-2.1-2.4V22.1z"/>
	<path class="st0" d="M36.4,22.1h0.7v3.6l3.5-3.6h0.9l-2.6,2.6l2.7,3.4h-0.9l-2.3-2.9l-1.3,1.3v1.6h-0.7V22.1z"/>
	<path class="st0" d="M42.6,22.1h4.4v0.6h-3.7v2.1h3.3v0.6h-3.3v2.1H47v0.6h-4.4V22.1z"/>
	<path class="st0" d="M50.2,25.7l-2.5-3.6h0.8l2,3l2-3h0.8l-2.5,3.6v2.4h-0.7V25.7z"/>
	<path class="st0" d="M55.8,22.1h0.6l2.7,6.1h-0.7l-0.7-1.6h-3.3l-0.7,1.6H53L55.8,22.1z M57.4,25.9l-1.4-3.1l-1.4,3.1H57.4z"/>
	<path class="st0" d="M60.2,22.1h4.6v0.6h-3.6l2,2.3L61,27.5h3.9v0.6h-4.8v-0.5l2.3-2.6l-2.1-2.4V22.1z"/>
	<path class="st0" d="M67.8,22.7h-2v-0.6h4.7v0.6h-2v5.4h-0.7V22.7z"/>
	<path class="st0" d="M71.8,22.1h0.7v6h-0.7V22.1z"/>
	<path class="st0" d="M74.2,22.1h0.7v3.6l3.5-3.6h0.9l-2.6,2.6l2.7,3.4h-0.9l-2.3-2.9l-1.3,1.3v1.6h-0.7V22.1z"/>
	<path class="st0" d="M80.4,22.1h0.7v2.7h3.5v-2.7h0.7v6h-0.7v-2.7h-3.5v2.7h-0.7V22.1z"/>
	<path class="st0" d="M6.8,32.4h4.4V33H7.5v2.1h3.3v0.6H7.5v2.1h3.7v0.6H6.8V32.4z"/>
	<path class="st0" d="M14.1,33h-2v-0.6h4.7V33h-2v5.4h-0.7V33z"/>
	<path class="st0" d="M19.6,32.4h0.6l2.7,6.1h-0.7l-0.7-1.6h-3.3l-0.7,1.6h-0.7L19.6,32.4z M21.3,36.2l-1.4-3.1l-1.4,3.1H21.3z"/>
	<path class="st0" d="M24.2,32.4h0.7v6h-0.7V32.4z"/>
	<path class="st0" d="M26.6,32.4h2.3c1.4,0,2.3,0.7,2.3,1.9v0c0,1.3-1.1,2-2.4,2h-1.5v2.1h-0.7V32.4z M28.8,35.7
		c1,0,1.7-0.5,1.7-1.3v0c0-0.9-0.6-1.3-1.6-1.3h-1.5v2.6H28.8z"/>
	<path class="st0" d="M32.4,32.4h4.4V33h-3.7v2.1h3.3v0.6h-3.3v2.1h3.7v0.6h-4.4V32.4z"/>
	<path class="st0" d="M38.2,32.4h0.7v6h-0.7V32.4z"/>
	<path class="st0" d="M42.9,32.4h0.6l2.7,6.1h-0.7l-0.7-1.6h-3.3l-0.7,1.6h-0.7L42.9,32.4z M44.5,36.2l-1.4-3.1l-1.4,3.1H44.5z"/>
</g>
<g>
	<rect x="6.6" y="17.4" class="st0" width="85.7" height="0.5"/>
</g>
</svg>
