<?xml version="1.0" encoding="utf-8"?>
<!-- Generator: Adobe Illustrator 22.0.1, SVG Export Plug-In . SVG Version: 6.00 Build 0)  -->
<svg version="1.1" id="Layer_1" xmlns="http://www.w3.org/2000/svg" xmlns:xlink="http://www.w3.org/1999/xlink" x="0px" y="0px"
	 viewBox="0 0 74.7 41.7" style="enable-background:new 0 0 74.7 41.7;" xml:space="preserve">
<style type="text/css">
	.st0{filter:url(#Adobe_OpacityMaskFilter);}
	.st1{fill:url(#SVGID_2_);}
	.st2{mask:url(#SVGID_1_);}
	.st3{fill:#1D1D1B;}
</style>
<g>
	<defs>
		<filter id="Adobe_OpacityMaskFilter" filterUnits="userSpaceOnUse" x="6.1" y="4.1" width="62" height="30.9">
			
				<feColorMatrix  type="matrix" values="-1 0 0 0 1  0 -1 0 0 1  0 0 -1 0 1  0 0 0 1 0" color-interpolation-filters="sRGB" result="source"/>
		</filter>
	</defs>
	<mask maskUnits="userSpaceOnUse" x="6.1" y="4.1" width="62" height="30.9" id="SVGID_1_">
		<g class="st0">
			<linearGradient id="SVGID_2_" gradientUnits="userSpaceOnUse" x1="6.1611" y1="19.5582" x2="69.204" y2="19.5582">
				<stop  offset="0" style="stop-color:#FFFFFF"/>
				<stop  offset="4.202013e-02" style="stop-color:#F9F9F9"/>
				<stop  offset="9.708892e-02" style="stop-color:#E9E9E9"/>
				<stop  offset="0.1594" style="stop-color:#CECECE"/>
				<stop  offset="0.227" style="stop-color:#A8A8A8"/>
				<stop  offset="0.299" style="stop-color:#777777"/>
				<stop  offset="0.3734" style="stop-color:#3D3D3D"/>
				<stop  offset="0.4422" style="stop-color:#000000"/>
				<stop  offset="1" style="stop-color:#000000"/>
			</linearGradient>
			<rect x="6.2" y="4.1" class="st1" width="63" height="30.9"/>
		</g>
	</mask>
	<g class="st2">
		<g>
			<polygon class="st3" points="48.4,12.4 48.4,8.9 36.3,8.9 6.1,28.7 6.1,29.8 36.3,12.4 			"/>
			<polygon class="st3" points="48.4,6.6 48.4,4.1 36.3,4.1 6.1,27.4 6.1,28.4 36.3,6.6 			"/>
			<polygon class="st3" points="66,6.6 66.8,4.1 52.2,4.1 51.1,6.6 			"/>
			<polygon class="st3" points="61.8,18.2 63.1,14.7 36.3,14.7 6.1,30.1 6.1,31.2 36.3,18.2 			"/>
			<polygon class="st3" points="48.5,12.4 63.9,12.4 65.1,8.9 50.1,8.9 			"/>
			<polygon class="st3" points="36.3,32.1 6.1,34.1 6.1,35 36.3,35 40.6,35 48.4,35 48.4,32.1 			"/>
			<polygon class="st3" points="63.4,24 61.9,20.5 36.3,20.5 6.1,31.5 6.1,32.5 36.6,24 			"/>
			<polygon class="st3" points="50.6,32.1 51.6,35 68.1,35 66.9,32.1 			"/>
			<polygon class="st3" points="48.4,29.8 48.4,26.3 36.6,26.3 6.1,32.8 6.1,33.7 36.3,29.8 			"/>
			<polygon class="st3" points="65.9,29.8 64.4,26.3 48.4,26.3 49.7,29.8 			"/>
		</g>
	</g>
</g>
</svg>
